<svg width="20" height="20" viewBox="0 0 20 20" fill="none" xmlns="http://www.w3.org/2000/svg">
<path d="M15 4.1665C15.442 4.1665 15.8659 4.3421 16.1785 4.65466C16.491 4.96722 16.6666 5.39114 16.6666 5.83317V12.9382C16.6665 13.1977 16.727 13.4537 16.8433 13.6857L17.7333 15.4582C17.7976 15.5857 17.828 15.7275 17.8216 15.8701C17.8153 16.0128 17.7725 16.1514 17.6972 16.2727C17.6219 16.394 17.5167 16.4939 17.3917 16.5628C17.2667 16.6318 17.1261 16.6675 16.9833 16.6665H3.01664C2.87388 16.6675 2.73326 16.6318 2.60826 16.5628C2.48326 16.4939 2.37808 16.394 2.30279 16.2727C2.2275 16.1514 2.18464 16.0128 2.17831 15.8701C2.17198 15.7275 2.2024 15.5857 2.26664 15.4582L3.15664 13.6857C3.27293 13.4537 3.33342 13.1977 3.33331 12.9382V5.83317C3.33331 5.39114 3.5089 4.96722 3.82147 4.65466C4.13403 4.3421 4.55795 4.1665 4.99998 4.1665H15Z" stroke="#EF651A" stroke-width="1.7" stroke-linecap="round" stroke-linejoin="round"/>
<path d="M16.7117 13.3223H3.28833" stroke="#EF651A" stroke-width="1.7" stroke-linecap="round" stroke-linejoin="round"/>
</svg>
