<svg width="20" height="22" viewBox="0 0 20 22" fill="none" xmlns="http://www.w3.org/2000/svg">
<path d="M7.18344 13.5C7.00812 13.3173 6.87166 13.1008 6.78227 12.8639C6.69289 12.6269 6.65244 12.3743 6.66337 12.1212C6.6743 11.8682 6.73638 11.62 6.84586 11.3916C6.95535 11.1632 7.10997 10.9594 7.30039 10.7924C7.49081 10.6254 7.7131 10.4987 7.95382 10.42C8.19455 10.3413 8.44873 10.3122 8.70102 10.3344C8.95332 10.3566 9.1985 10.4297 9.42177 10.5492C9.64505 10.6688 9.84178 10.8324 10.0001 11.03C10.1592 10.8344 10.3561 10.6729 10.5791 10.5551C10.802 10.4374 11.0464 10.3658 11.2977 10.3446C11.5489 10.3235 11.8019 10.3533 12.0414 10.4322C12.2809 10.511 12.502 10.6374 12.6915 10.8037C12.881 10.97 13.035 11.1729 13.1444 11.4001C13.2537 11.6273 13.3161 11.8742 13.3278 12.1261C13.3395 12.378 13.3002 12.6296 13.2124 12.866C13.1246 13.1023 12.9901 13.3186 12.8168 13.5017L10.6284 15.8817C10.5504 15.9716 10.4539 16.0437 10.3456 16.0931C10.2373 16.1425 10.1196 16.168 10.0005 16.168C9.88146 16.168 9.76379 16.1425 9.65546 16.0931C9.54713 16.0437 9.45068 15.9716 9.37261 15.8817L7.18344 13.5Z" stroke="#EF651A" stroke-width="1.7" stroke-linecap="round" stroke-linejoin="round"/>
<path d="M2.5 10.3336C2.49994 10.0911 2.55278 9.85159 2.65482 9.63167C2.75687 9.41175 2.90566 9.21673 3.09083 9.06024L8.92417 4.06024C9.22499 3.80599 9.60613 3.6665 10 3.6665C10.3939 3.6665 10.775 3.80599 11.0758 4.06024L16.9092 9.06024C17.0943 9.21673 17.2431 9.41175 17.3452 9.63167C17.4472 9.85159 17.5001 10.0911 17.5 10.3336V17.8336C17.5 18.2756 17.3244 18.6995 17.0118 19.0121C16.6993 19.3246 16.2754 19.5002 15.8333 19.5002H4.16667C3.72464 19.5002 3.30072 19.3246 2.98816 19.0121C2.67559 18.6995 2.5 18.2756 2.5 17.8336V10.3336Z" stroke="#EF651A" stroke-width="1.7" stroke-linecap="round" stroke-linejoin="round"/>
</svg>
