<svg width="20" height="20" viewBox="0 0 20 20" fill="none" xmlns="http://www.w3.org/2000/svg">
<path d="M6.41306 12.1912C6.82421 13.7886 8.2743 14.9689 10.0001 14.9689C11.7259 14.9689 13.176 13.7886 13.5871 12.1912M9.09054 1.78748L2.81063 6.67185C2.39084 6.99835 2.18095 7.1616 2.02974 7.36605C1.89579 7.54715 1.79601 7.75116 1.73529 7.96808C1.66675 8.21296 1.66675 8.47886 1.66675 9.01067V15.7097C1.66675 16.7468 1.66675 17.2654 1.86859 17.6615C2.04613 18.01 2.32943 18.2933 2.67788 18.4708C3.07401 18.6726 3.59258 18.6726 4.62971 18.6726H15.3705C16.4076 18.6726 16.9262 18.6726 17.3223 18.4708C17.6707 18.2933 17.954 18.01 18.1316 17.6615C18.3334 17.2654 18.3334 16.7468 18.3334 15.7097V9.01067C18.3334 8.47886 18.3334 8.21296 18.2649 7.96808C18.2042 7.75116 18.1044 7.54715 17.9704 7.36605C17.8192 7.1616 17.6093 6.99835 17.1895 6.67185L10.9096 1.78748C10.5843 1.53446 10.4217 1.40796 10.2421 1.35933C10.0836 1.31642 9.91657 1.31642 9.75809 1.35933C9.57849 1.40796 9.41584 1.53446 9.09054 1.78748Z" stroke="#EF651A" stroke-width="1.7" stroke-linecap="round" stroke-linejoin="round"/>
</svg>
