<svg width="20" height="20" viewBox="0 0 20 20" fill="none" xmlns="http://www.w3.org/2000/svg">
<path d="M10 13.3334C11.3807 13.3334 12.5 12.2142 12.5 10.8334C12.5 9.45273 11.3807 8.33344 10 8.33344C8.61929 8.33344 7.5 9.45273 7.5 10.8334C7.5 12.2142 8.61929 13.3334 10 13.3334Z" stroke="#EF651A" stroke-width="1.7" stroke-linecap="round" stroke-linejoin="round"/>
<path d="M2.5 8.80433C2.5 8.3257 2.5 8.08639 2.56169 7.866C2.61633 7.67078 2.70614 7.48716 2.82669 7.32417C2.96278 7.14017 3.15168 6.99324 3.52949 6.69939L9.18141 2.30345C9.47418 2.07574 9.62057 1.96189 9.78221 1.91812C9.92484 1.87951 10.0752 1.87951 10.2178 1.91812C10.3794 1.96189 10.5258 2.07574 10.8186 2.30345L16.4705 6.69939C16.8483 6.99324 17.0372 7.14017 17.1733 7.32417C17.2939 7.48716 17.3837 7.67078 17.4383 7.866C17.5 8.08639 17.5 8.3257 17.5 8.80433V14.8334C17.5 15.7669 17.5 16.2336 17.3183 16.5901C17.1586 16.9037 16.9036 17.1587 16.59 17.3185C16.2335 17.5001 15.7668 17.5001 14.8333 17.5001H5.16667C4.23325 17.5001 3.76654 17.5001 3.41002 17.3185C3.09641 17.1587 2.84144 16.9037 2.68166 16.5901C2.5 16.2336 2.5 15.7669 2.5 14.8334V8.80433Z" stroke="#EF651A" stroke-width="1.7" stroke-linecap="round" stroke-linejoin="round"/>
</svg>
