<svg width="20" height="20" viewBox="0 0 20 20" fill="none" xmlns="http://www.w3.org/2000/svg">
<path d="M10 6.6665L15 4.1665L10 1.6665V9.99984" stroke="#EF651A" stroke-width="1.7" stroke-linecap="round" stroke-linejoin="round"/>
<path d="M6.66668 9.9917L2.08335 12.6084C1.9551 12.681 1.84842 12.7864 1.77421 12.9138C1.69999 13.0412 1.66089 13.186 1.66089 13.3334C1.66089 13.4808 1.69999 13.6256 1.77421 13.7529C1.84842 13.8803 1.9551 13.9857 2.08335 14.0584L9.16668 18.1084C9.42004 18.2546 9.70745 18.3317 10 18.3317C10.2926 18.3317 10.58 18.2546 10.8333 18.1084L17.9167 14.0584C18.0449 13.9857 18.1516 13.8803 18.2258 13.7529C18.3 13.6256 18.3391 13.4808 18.3391 13.3334C18.3391 13.186 18.3 13.0412 18.2258 12.9138C18.1516 12.7864 18.0449 12.681 17.9167 12.6084L13.3333 10" stroke="#EF651A" stroke-width="1.7" stroke-linecap="round" stroke-linejoin="round"/>
<path d="M5.40845 10.7085L14.5918 15.9585" stroke="#EF651A" stroke-width="1.7" stroke-linecap="round" stroke-linejoin="round"/>
<path d="M14.5917 10.7085L5.41675 15.9585" stroke="#EF651A" stroke-width="1.7" stroke-linecap="round" stroke-linejoin="round"/>
</svg>
