<svg width="20" height="20" viewBox="0 0 20 20" fill="none" xmlns="http://www.w3.org/2000/svg">
<path d="M13.3334 5.83333C13.3334 5.05836 13.3334 4.67087 13.2482 4.35295C13.0171 3.49022 12.3432 2.81635 11.4805 2.58519C11.1625 2.5 10.7751 2.5 10.0001 2.5C9.2251 2.5 8.83762 2.5 8.5197 2.58519C7.65697 2.81635 6.9831 3.49022 6.75193 4.35295C6.66675 4.67087 6.66675 5.05836 6.66675 5.83333M5.66675 17.5H14.3334C15.7335 17.5 16.4336 17.5 16.9684 17.2275C17.4388 16.9878 17.8212 16.6054 18.0609 16.135C18.3334 15.6002 18.3334 14.9001 18.3334 13.5V9.83333C18.3334 8.4332 18.3334 7.73314 18.0609 7.19836C17.8212 6.72795 17.4388 6.3455 16.9684 6.10582C16.4336 5.83333 15.7335 5.83333 14.3334 5.83333H5.66675C4.26662 5.83333 3.56655 5.83333 3.03177 6.10582C2.56137 6.3455 2.17892 6.72795 1.93923 7.19836C1.66675 7.73314 1.66675 8.4332 1.66675 9.83333V13.5C1.66675 14.9001 1.66675 15.6002 1.93923 16.135C2.17892 16.6054 2.56137 16.9878 3.03177 17.2275C3.56655 17.5 4.26662 17.5 5.66675 17.5Z" stroke="#EF651A" stroke-width="1.7" stroke-linecap="round" stroke-linejoin="round"/>
</svg>
