<svg width="20" height="20" viewBox="0 0 20 20" fill="none" xmlns="http://www.w3.org/2000/svg">
<path d="M1.66675 4.99984C2.16675 5.4165 2.66675 5.83317 3.75008 5.83317C5.83341 5.83317 5.83341 4.1665 7.91675 4.1665C10.0834 4.1665 9.91675 5.83317 12.0834 5.83317C14.1667 5.83317 14.1667 4.1665 16.2501 4.1665C17.3334 4.1665 17.8334 4.58317 18.3334 4.99984" stroke="#EF651A" stroke-width="1.7" stroke-linecap="round" stroke-linejoin="round"/>
<path d="M1.66675 9.99984C2.16675 10.4165 2.66675 10.8332 3.75008 10.8332C5.83341 10.8332 5.83341 9.1665 7.91675 9.1665C10.0834 9.1665 9.91675 10.8332 12.0834 10.8332C14.1667 10.8332 14.1667 9.1665 16.2501 9.1665C17.3334 9.1665 17.8334 9.58317 18.3334 9.99984" stroke="#EF651A" stroke-width="1.7" stroke-linecap="round" stroke-linejoin="round"/>
<path d="M1.66675 14.9998C2.16675 15.4165 2.66675 15.8332 3.75008 15.8332C5.83341 15.8332 5.83341 14.1665 7.91675 14.1665C10.0834 14.1665 9.91675 15.8332 12.0834 15.8332C14.1667 15.8332 14.1667 14.1665 16.2501 14.1665C17.3334 14.1665 17.8334 14.5832 18.3334 14.9998" stroke="#EF651A" stroke-width="1.7" stroke-linecap="round" stroke-linejoin="round"/>
</svg>
