<svg width="48" height="48" viewBox="0 0 48 48" fill="none" xmlns="http://www.w3.org/2000/svg">
<path d="M25.34 37.9991C25.8662 37.999 26.3872 37.8951 26.8732 37.6933C27.3591 37.4915 27.8005 37.1958 28.172 36.8231L40.48 24.4791C42.7317 22.2274 43.9967 19.1735 43.9967 15.9891C43.9967 12.8047 42.7317 9.75078 40.48 7.49909C38.2283 5.24741 35.1744 3.98242 31.99 3.98242C28.8056 3.98242 25.7517 5.24741 23.5 7.49909L11.172 19.8271C10.4218 20.5771 10.0002 21.5943 10 22.6551V35.9991C10 36.5295 10.2107 37.0382 10.5858 37.4133C10.9609 37.7884 11.4696 37.9991 12 37.9991H25.34Z" stroke="#EF651A" stroke-width="4" stroke-linecap="round" stroke-linejoin="round"/>
<path d="M32 16L4 44" stroke="#EF651A" stroke-width="4" stroke-linecap="round" stroke-linejoin="round"/>
<path d="M35 30H18" stroke="#EF651A" stroke-width="4" stroke-linecap="round" stroke-linejoin="round"/>
</svg>
