<svg width="48" height="48" viewBox="0 0 48 48" fill="none" xmlns="http://www.w3.org/2000/svg">
<path d="M43.08 30H34C32.9391 30 31.9217 30.4214 31.1716 31.1716C30.4214 31.9217 30 32.9391 30 34V43.08" stroke="#EF651A" stroke-width="4" stroke-linecap="round" stroke-linejoin="round"/>
<path d="M14 6.67969V9.99969C14 11.591 14.6321 13.1171 15.7574 14.2423C16.8826 15.3675 18.4087 15.9997 20 15.9997C21.0609 15.9997 22.0783 16.4211 22.8284 17.1713C23.5786 17.9214 24 18.9388 24 19.9997C24 22.1997 25.8 23.9997 28 23.9997C29.0609 23.9997 30.0783 23.5783 30.8284 22.8281C31.5786 22.078 32 21.0606 32 19.9997C32 17.7997 33.8 15.9997 36 15.9997H42.34" stroke="#EF651A" stroke-width="4" stroke-linecap="round" stroke-linejoin="round"/>
<path d="M21.9996 43.9V36C21.9996 34.9391 21.5782 33.9217 20.828 33.1716C20.0779 32.4214 19.0605 32 17.9996 32C16.9387 32 15.9213 31.5786 15.1712 30.8284C14.421 30.0783 13.9996 29.0609 13.9996 28V26C13.9996 24.9391 13.5782 23.9217 12.828 23.1716C12.0779 22.4214 11.0605 22 9.99961 22H4.09961" stroke="#EF651A" stroke-width="4" stroke-linecap="round" stroke-linejoin="round"/>
<path d="M24 44C35.0457 44 44 35.0457 44 24C44 12.9543 35.0457 4 24 4C12.9543 4 4 12.9543 4 24C4 35.0457 12.9543 44 24 44Z" stroke="#EF651A" stroke-width="4" stroke-linecap="round" stroke-linejoin="round"/>
</svg>
