<svg width="33" height="33" viewBox="0 0 33 33" fill="none" xmlns="http://www.w3.org/2000/svg">
<path d="M16.0787 0.000976562C24.9753 -0.0732134 32.3994 7.08181 32.4342 16.2012V16.2031C32.4222 25.1209 25.2799 32.3153 16.4283 32.4277C7.4056 32.5418 0.174388 25.3348 0.00354004 16.5439C-0.172545 7.46194 7.11301 0.0761093 16.0787 0.000976562ZM15.9449 3.68555C15.8464 3.70262 15.7549 3.73348 15.6881 3.77441C14.9159 4.24817 14.1486 4.72752 13.3951 5.22461C12.848 5.58558 12.2732 5.99308 11.6129 6.25488C11.1597 6.43466 10.6875 6.54204 10.1891 6.53613L9.97327 6.52637C9.79224 6.51231 9.61182 6.51791 9.45081 6.55176C8.9773 6.65173 8.55604 6.89864 8.14026 7.20898C7.51595 7.67453 6.87774 8.14562 6.18713 8.54785C5.40538 9.00315 4.57932 9.4925 3.63245 9.70703C3.49188 9.73887 3.40477 9.78668 3.34045 9.84473C3.27328 9.9055 3.21233 9.99359 3.14807 10.1338C2.058 12.514 1.63993 15.0041 1.87756 17.6074C1.98401 18.7753 2.23893 19.9142 2.63342 21.0205C3.42894 23.2512 4.69664 25.172 6.4303 26.7842C7.53924 27.8152 8.78425 28.6476 10.1598 29.2861C11.8446 30.0683 13.615 30.5052 15.4684 30.5996C16.7613 30.6654 18.0416 30.5649 19.3063 30.2842C22.0079 29.684 24.3434 28.4112 26.3199 26.4785C27.5911 25.2357 28.5912 23.7982 29.3297 22.1787C30.0709 20.5532 30.489 18.8459 30.5953 17.0625C30.6607 15.9668 30.5984 14.8762 30.4147 13.792C30.1649 12.3174 29.6947 10.9172 29.0035 9.5918C28.9999 9.58913 28.9945 9.58629 28.9889 9.58301C28.9828 9.57944 28.9763 9.57592 28.9703 9.57324C28.8499 9.51967 28.7283 9.4742 28.5914 9.41992C28.4596 9.3676 28.318 9.30879 28.1813 9.2334C27.6533 8.9424 27.129 8.61797 26.6198 8.32227C26.1266 8.03561 25.6897 7.77636 25.1823 7.68945C24.6137 7.59195 24.1156 7.33934 23.6989 6.94238C23.445 6.70044 23.1929 6.45426 22.9459 6.20312C22.7516 6.00575 22.5258 5.92325 22.2496 5.94238C21.9541 5.96293 21.6587 5.98678 21.3658 6.01562C21.2357 6.0284 21.106 6.04418 20.9733 6.05957C21.2104 6.30995 21.4571 6.56716 21.6852 6.83203C22.0328 7.23544 22.4306 7.56628 22.8912 7.82227C22.8915 7.82243 22.8921 7.82357 22.8932 7.82422C22.8949 7.82509 22.8979 7.82575 22.901 7.82715C22.9076 7.83018 22.9166 7.83445 22.9274 7.83887C22.9498 7.84798 22.979 7.85916 23.0123 7.87109C23.0793 7.89506 23.1599 7.92134 23.2438 7.94922C23.3261 7.97657 23.4129 8.00572 23.4869 8.03223C23.5548 8.05655 23.6333 8.08675 23.6881 8.11719L24.4293 8.52832L23.5865 8.62402C23.4776 8.63626 23.3515 8.62778 23.2721 8.62207C23.2567 8.62097 23.2429 8.62002 23.2311 8.61914H23.1451C23.0539 8.61914 22.9157 8.61846 22.7906 8.58789V8.58691C22.2171 8.447 21.5837 8.28793 21.0465 7.87598C20.6986 7.60882 20.3432 7.33835 19.9996 7.05371C19.6436 6.75911 19.2548 6.55057 18.8112 6.43164V6.43066C18.4681 6.33871 18.0379 6.22423 17.7096 5.88574H17.7086C17.3272 5.49184 16.9525 5.10077 16.5641 4.72461C16.4484 4.61252 16.3543 4.48564 16.2955 4.33594C16.2365 4.18534 16.2189 4.02571 16.234 3.85742C16.2421 3.76668 16.2158 3.72602 16.1998 3.70996C16.1832 3.69349 16.1405 3.66572 16.0465 3.67285L15.9449 3.68555ZM13.569 9.46387C13.6928 9.46166 13.8294 9.48365 13.9469 9.57227C14.0648 9.66126 14.1238 9.78645 14.1549 9.90625L14.1832 10.0596C14.1893 10.115 14.1905 10.1738 14.1842 10.2334V10.2344C14.1681 10.3832 14.1245 10.5454 13.9957 10.666C13.8683 10.7851 13.705 10.8188 13.5582 10.8281H13.5573C13.4379 10.8356 13.3368 10.8384 13.2408 10.8418L12.9557 10.8613C12.7259 10.8901 12.5034 10.9266 12.2916 10.9834C12.183 11.0125 12.1146 11.0608 12.0719 11.1152C12.0393 11.1568 12.0134 11.2128 11.9996 11.2871L11.9899 11.3672C11.9609 11.917 11.9334 12.461 11.9293 13.0039C11.9202 14.2243 11.9264 15.4443 11.9264 16.668V16.6973C14.7974 16.7242 17.6408 16.7442 20.4899 16.709L20.4821 11.7061C20.4817 11.6366 20.4748 11.5646 20.4625 11.4893L20.4137 11.251C20.3753 11.0861 20.2816 10.9979 20.1383 10.9717C19.8078 10.9109 19.4761 10.8802 19.1217 10.8369C19.0965 10.8339 19.067 10.8324 19.028 10.832L18.8951 10.8301C18.6356 10.8194 18.4115 10.6922 18.2916 10.4805C18.1721 10.2691 18.1779 10.0112 18.2985 9.78125C18.3972 9.59323 18.578 9.45909 18.8229 9.46582C19.2952 9.47876 19.7711 9.49481 20.2408 9.50879C20.4023 9.5135 20.5579 9.51792 20.7125 9.5166H20.7135C21.8521 9.50833 22.9904 9.49985 24.1285 9.48828C24.2276 9.48725 24.3281 9.4821 24.4342 9.47656C24.5384 9.47112 24.6491 9.46561 24.7604 9.46387C24.9324 9.4612 25.1111 9.49936 25.2487 9.62598C25.3871 9.75358 25.4372 9.92784 25.4449 10.0967C25.4531 10.2745 25.4215 10.4615 25.2965 10.6084C25.2012 10.7202 25.076 10.7808 24.944 10.8096L24.8112 10.8281C24.5061 10.8506 24.2384 10.8583 23.9557 10.8887C23.8068 10.9047 23.654 10.9425 23.486 10.9873C23.3909 11.0126 23.335 11.0574 23.3063 11.1182L23.2858 11.1836C23.238 11.4632 23.1974 11.7269 23.1969 11.9834C23.1911 15.9192 23.1911 19.8552 23.1969 23.791C23.1971 24.0169 23.2402 24.2466 23.2848 24.5078C23.3056 24.6298 23.3687 24.6883 23.4674 24.7061C23.7945 24.7649 24.126 24.8018 24.4703 24.8428L24.6676 24.8555L24.9098 24.8701C25.0828 24.8907 25.2344 24.9757 25.3326 25.123C25.4251 25.2619 25.4527 25.4294 25.4449 25.5918C25.4375 25.7441 25.3936 25.9019 25.2858 26.0254C25.172 26.1556 25.0138 26.2169 24.8444 26.2158C24.2716 26.2121 23.7641 26.1858 23.2076 26.1875C21.8587 26.1914 20.5108 26.2059 19.1598 26.2158C19.0844 26.2164 19.0095 26.2161 18.9362 26.2158C18.6774 26.2149 18.4339 26.1155 18.3004 25.8965C18.168 25.6791 18.1881 25.4164 18.2994 25.1836C18.3444 25.0897 18.4111 25.0072 18.5035 24.9482C18.5952 24.8899 18.696 24.865 18.7926 24.8604L19.233 24.8418C19.3764 24.8351 19.5171 24.8263 19.6588 24.8125C19.8398 24.795 20.0247 24.7585 20.2096 24.71C20.3357 24.6769 20.3924 24.6084 20.4049 24.5098C20.4513 24.1415 20.4975 23.7939 20.4996 23.4492C20.5094 21.7411 20.5047 20.0332 20.5045 18.3232H11.9166C11.9183 18.4597 11.9205 18.6057 11.9205 18.7451C11.9208 20.376 11.9199 22.0066 11.9235 23.6367C11.924 23.8539 11.9375 24.073 11.9645 24.2891C11.992 24.508 12.0428 24.602 12.0963 24.6533C12.1523 24.7069 12.2585 24.7591 12.4987 24.7871C12.8481 24.8278 13.1963 24.839 13.568 24.8613C13.71 24.8699 13.8766 24.9018 14.0026 25.0273C14.0974 25.122 14.1395 25.2401 14.1578 25.3545L14.1696 25.4678L14.1656 25.668V25.6689C14.1543 25.8066 14.1108 25.957 13.9908 26.0693C13.8698 26.1826 13.7153 26.2154 13.5729 26.2148C13.011 26.2123 12.476 26.2017 11.9205 26.2012C10.985 26.2003 10.0496 26.204 9.11292 26.207C8.62219 26.2087 8.11841 26.2148 7.62366 26.2148C7.46273 26.2148 7.2851 26.1808 7.15198 26.0469C7.02083 25.9147 6.98609 25.7379 6.98206 25.5801L6.98303 25.5791C6.97876 25.4082 6.99785 25.2213 7.11194 25.0732C7.23498 24.9137 7.41566 24.8629 7.58167 24.8496L8.70081 24.7588C8.78274 24.7507 8.87099 24.7269 8.95569 24.6924C9.08786 24.6385 9.14307 24.5243 9.18518 24.2656C9.21702 24.0715 9.2301 23.8691 9.2301 23.666C9.23286 19.8312 9.23286 15.995 9.2301 12.1602C9.23009 11.9154 9.22462 11.683 9.19006 11.4619C9.15244 11.2216 9.09841 11.1178 9.04065 11.0605C8.98308 11.0036 8.87981 10.9515 8.64124 10.917C8.31875 10.8706 7.98895 10.8478 7.65198 10.8291H7.651C7.55808 10.8239 7.43559 10.8103 7.3219 10.752C7.19469 10.6866 7.10049 10.5775 7.05042 10.4287V10.4277C6.97813 10.2116 6.935 9.89436 7.18127 9.6377L7.23596 9.58984C7.29208 9.54728 7.35274 9.52004 7.40393 9.50293C7.47494 9.47921 7.55204 9.46659 7.62463 9.4668C7.82667 9.46736 8.02864 9.47311 8.22522 9.47949C8.4229 9.48591 8.61592 9.49289 8.80823 9.49316C10.1435 9.49537 11.4792 9.49171 12.8151 9.4873C12.9353 9.48691 13.0571 9.48204 13.1832 9.47656C13.3075 9.47117 13.4377 9.46616 13.568 9.46387H13.569ZM14.191 5.90918C14.1753 5.94558 14.1684 5.9669 14.1549 6.00098C14.1436 6.02945 14.1234 6.07594 14.0905 6.12207C13.7583 6.58635 13.4258 7.05785 13.0836 7.52051C12.8535 7.83143 12.5229 7.98589 12.2291 8.08984C11.7044 8.27545 11.174 8.4504 10.651 8.62793L10.6549 8.62598C10.6544 8.6261 10.653 8.62648 10.652 8.62695C10.6508 8.62752 10.6487 8.6281 10.6471 8.62891H10.649L10.6461 8.62988C10.6365 8.63519 10.6178 8.64626 10.5983 8.65625C10.5784 8.66636 10.5514 8.67949 10.5221 8.69043C10.4942 8.70077 10.4509 8.71377 10.402 8.71777L9.60413 8.78223L10.1989 8.24609C10.2446 8.20477 10.299 8.14362 10.3824 8.05762C10.4508 7.98717 10.5502 7.88782 10.65 7.83008C11.2578 7.47914 11.754 6.9886 12.275 6.46484C12.6501 6.08803 13.0886 5.7982 13.5748 5.5918V5.59082C13.6484 5.55964 13.7211 5.55063 13.7692 5.5459C13.81 5.54189 13.8361 5.53983 13.8639 5.53711L14.486 5.22656L14.191 5.90918ZM16.0748 1.81348C10.4682 1.86668 6.22853 5.07763 4.13831 8.37109C5.07412 7.87674 5.96471 7.3129 6.78967 6.65234C7.36383 6.19253 7.9744 5.72058 8.72131 5.44727C8.767 5.43055 8.81374 5.4117 8.86389 5.3916C8.91299 5.37192 8.96726 5.35025 9.02112 5.33008C9.12863 5.28985 9.25157 5.24973 9.38342 5.23047C9.71986 5.18144 10.081 5.18309 10.3824 5.16602C10.7984 5.14249 11.1098 5.14975 11.3854 5.00098C11.7769 4.78949 12.1561 4.54841 12.5406 4.30078L13.775 3.50195C14.185 3.23451 14.5943 2.96529 15.0016 2.69434L15.15 2.60547C15.9142 2.19934 17.0013 2.32509 17.6442 2.96387C17.9068 3.22498 18.1758 3.48164 18.4469 3.73926C18.7173 3.99619 18.9909 4.2558 19.2594 4.51953H19.2604C19.492 4.74691 19.7481 4.84178 20.0543 4.8125C20.6039 4.75994 21.1447 4.71007 21.6793 4.62988H21.6803C22.4631 4.51269 23.1593 4.6997 23.7994 5.13086C24.6448 5.70055 25.5005 6.25738 26.359 6.81152C26.5799 6.95412 26.8061 7.09107 27.0358 7.22949C27.2644 7.36725 27.498 7.50697 27.7272 7.65332C27.7711 7.68138 27.8143 7.71143 27.858 7.74023C25.6665 4.68889 21.5115 1.76224 16.0748 1.81348Z" fill="#EF651A"/>
</svg>
