<svg width="12" height="12" viewBox="0 0 12 12" fill="none" xmlns="http://www.w3.org/2000/svg">
<path d="M6 12C9.31371 12 12 9.31371 12 6C12 2.68629 9.31371 0 6 0C2.68629 0 0 2.68629 0 6C0 9.31371 2.68629 12 6 12Z" fill="url(#paint0_linear_569_2685)"/>
<path fill-rule="evenodd" clip-rule="evenodd" d="M4.59823 3.64773C4.49325 3.41411 4.38265 3.40938 4.2824 3.40524C4.20049 3.40169 4.10704 3.40198 4.01359 3.40198C3.92014 3.40198 3.76814 3.43717 3.63951 3.57764C3.51087 3.71811 3.14832 4.0573 3.14832 4.74751C3.14832 5.43772 3.65104 6.10486 3.72112 6.19831C3.79121 6.29176 4.69168 7.7535 6.11764 8.31596C7.30259 8.78319 7.54389 8.69034 7.80117 8.66698C8.05844 8.64362 8.63125 8.32779 8.74806 8.00013C8.86487 7.67247 8.86487 7.39183 8.82998 7.33328C8.79479 7.27473 8.70134 7.23983 8.56117 7.16945C8.421 7.09907 7.73108 6.75988 7.60244 6.71316C7.47381 6.66643 7.38036 6.64307 7.28662 6.78354C7.19317 6.92371 6.92436 7.23983 6.84245 7.33328C6.76053 7.42702 6.67862 7.43885 6.53845 7.36847C6.39827 7.29809 5.94641 7.15023 5.41027 6.67235C4.99331 6.30063 4.71179 5.84138 4.62987 5.70091C4.54796 5.56074 4.621 5.48474 4.69138 5.41465C4.75437 5.35166 4.83155 5.25082 4.90193 5.16891C4.97202 5.08699 4.99538 5.02844 5.0421 4.93499C5.08883 4.84125 5.06547 4.75934 5.03028 4.68925C4.99568 4.61887 4.72302 3.92511 4.59823 3.64773Z" fill="white"/>
<defs>
<linearGradient id="paint0_linear_569_2685" x1="5.995" y1="0" x2="5.995" y2="11.9051" gradientUnits="userSpaceOnUse">
<stop stop-color="#EF651A"/>
</linearGradient>
</defs>
</svg>
