<svg width="12" height="12" viewBox="0 0 12 12" fill="none" xmlns="http://www.w3.org/2000/svg">
<path d="M6 12C9.31371 12 12 9.31371 12 6C12 2.68629 9.31371 0 6 0C2.68629 0 0 2.68629 0 6C0 9.31371 2.68629 12 6 12Z" fill="url(#paint0_linear_569_2682)"/>
<path fill-rule="evenodd" clip-rule="evenodd" d="M2.71281 5.93756C4.46135 5.17819 5.62538 4.67361 6.20989 4.42881C7.87351 3.73439 8.22322 3.61449 8.44803 3.6095C8.49799 3.6095 8.6079 3.61949 8.68283 3.67944C8.74278 3.7294 8.75777 3.79434 8.76776 3.8443C8.77775 3.89426 8.78775 3.99917 8.77775 4.07911C8.68783 5.02831 8.29815 7.3314 8.09832 8.39051C8.01339 8.84014 7.84853 8.99001 7.68866 9.005C7.33895 9.03498 7.07417 8.77519 6.73945 8.55538C6.20989 8.21066 5.91514 7.99584 5.40057 7.65612C4.80606 7.26645 5.19074 7.05163 5.53046 6.70192C5.62039 6.612 7.15411 5.21316 7.18408 5.08827C7.18908 5.07328 7.18908 5.01333 7.15411 4.98335C7.11914 4.95338 7.06918 4.96337 7.02921 4.97336C6.97426 4.98335 6.13496 5.54289 4.50132 6.64697C4.26152 6.81183 4.0467 6.89176 3.85186 6.88677C3.63704 6.88177 3.22738 6.76687 2.91764 6.66695C2.54295 6.54705 2.2432 6.4821 2.26818 6.27228C2.28317 6.16237 2.43304 6.05246 2.71281 5.93756Z" fill="white"/>
<defs>
<linearGradient id="paint0_linear_569_2682" x1="5.995" y1="0" x2="5.995" y2="11.9051" gradientUnits="userSpaceOnUse">
<stop stop-color="#EF651A"/>
</linearGradient>
</defs>
</svg>
