<svg width="12" height="13" viewBox="0 0 12 13" fill="none" xmlns="http://www.w3.org/2000/svg">
<path fill-rule="evenodd" clip-rule="evenodd" d="M0.153195 12.0526C0.112716 12.0526 0.0734638 12.0366 0.0443313 12.0072C0.00599911 11.9682 -0.00902707 11.9115 0.00538584 11.8591L0.814656 8.90412C0.312964 8.01297 0.0483179 7.001 0.0489312 5.97369C0.0501578 2.67958 2.73065 0 6.02447 0C7.62215 0.000613316 9.12324 0.622822 10.2514 1.75194C11.3796 2.88136 12.0006 4.38214 12 5.97799C11.9988 9.2718 9.31797 11.9517 6.02447 11.9517C5.04653 11.9514 4.07903 11.71 3.22039 11.2534L0.19214 12.0474C0.179261 12.051 0.166381 12.0526 0.153195 12.0526Z" fill="#F7B37A"/>
<path fill-rule="evenodd" clip-rule="evenodd" d="M9.44728 2.5552C8.53344 1.64074 7.31877 1.1369 6.0259 1.1366C3.35675 1.1366 1.18592 3.30651 1.18469 5.97382C1.18439 6.88796 1.44014 7.77788 1.92466 8.54851L2.03996 8.73159L1.55084 10.5166L3.38251 10.0364L3.55945 10.1413C4.30218 10.5823 5.15407 10.8153 6.02253 10.8156H6.02437C8.69168 10.8156 10.8625 8.64542 10.8634 5.9778C10.8637 4.68524 10.3611 3.46965 9.44728 2.5552Z" fill="#EF651A"/>
<path fill-rule="evenodd" clip-rule="evenodd" d="M4.56922 3.54048C4.46035 3.29822 4.34566 3.29332 4.24171 3.28902C4.15676 3.28534 4.05986 3.28565 3.96295 3.28565C3.86605 3.28565 3.70843 3.32214 3.57503 3.46781C3.44164 3.61347 3.06567 3.9652 3.06567 4.68094C3.06567 5.39668 3.58699 6.0885 3.65967 6.18541C3.73235 6.28231 4.66612 7.79812 6.14483 8.38138C7.3736 8.8659 7.62384 8.76961 7.89063 8.74539C8.15742 8.72116 8.75142 8.39365 8.87255 8.05387C8.99368 7.7141 8.99368 7.42308 8.95749 7.36236C8.921 7.30164 8.82409 7.26546 8.67874 7.19247C8.53338 7.11949 7.81795 6.76775 7.68455 6.7193C7.55116 6.67085 7.45425 6.64662 7.35704 6.79228C7.26014 6.93764 6.98139 7.26546 6.89644 7.36236C6.8115 7.45957 6.72655 7.47184 6.5812 7.39885C6.43584 7.32587 5.96727 7.17254 5.4113 6.67698C4.97891 6.29151 4.68697 5.81527 4.60203 5.66961C4.51709 5.52425 4.59283 5.44544 4.66581 5.37276C4.73113 5.30745 4.81117 5.20288 4.88415 5.11793C4.95683 5.03299 4.98106 4.97227 5.02951 4.87537C5.07796 4.77815 5.05374 4.69321 5.01724 4.62053C4.98137 4.54755 4.69863 3.82813 4.56922 3.54048Z" fill="white"/>
</svg>
