<svg width="49" height="49" viewBox="0 0 49 49" fill="none" xmlns="http://www.w3.org/2000/svg">
<path d="M17.5992 28.175C17.1697 27.7271 16.8353 27.1969 16.6163 26.6163C16.3973 26.0358 16.2982 25.4168 16.325 24.7969C16.3518 24.1769 16.5039 23.5689 16.7721 23.0093C17.0404 22.4498 17.4192 21.9504 17.8857 21.5413C18.3523 21.1321 18.8969 20.8218 19.4866 20.6289C20.0764 20.436 20.6992 20.3647 21.3173 20.4191C21.9354 20.4735 22.5361 20.6525 23.0831 20.9455C23.6301 21.2384 24.1121 21.6391 24.5 22.1235C24.8898 21.6442 25.3722 21.2484 25.9185 20.9599C26.4647 20.6714 27.0635 20.496 27.6791 20.4442C28.2947 20.3925 28.9144 20.4654 29.5011 20.6587C30.0879 20.8519 30.6296 21.1615 31.0939 21.569C31.5583 21.9764 31.9356 22.4734 32.2035 23.03C32.4713 23.5867 32.6242 24.1917 32.6528 24.8088C32.6815 25.4258 32.5854 26.0424 32.3702 26.6215C32.1551 27.2006 31.8254 27.7303 31.4009 28.179L26.0394 34.01C25.8482 34.2303 25.6119 34.4069 25.3464 34.5279C25.081 34.6489 24.7927 34.7115 24.501 34.7115C24.2094 34.7115 23.9211 34.6489 23.6557 34.5279C23.3902 34.4069 23.1539 34.2303 22.9627 34.01L17.5992 28.175Z" stroke="#EF651A" stroke-width="3" stroke-linecap="round" stroke-linejoin="round"/>
<path d="M6.125 20.4168C6.12486 19.8228 6.25431 19.236 6.50432 18.6972C6.75433 18.1584 7.11888 17.6806 7.57254 17.2972L21.8642 5.04716C22.6012 4.42427 23.535 4.08252 24.5 4.08252C25.465 4.08252 26.3988 4.42427 27.1358 5.04716L41.4275 17.2972C41.8811 17.6806 42.2457 18.1584 42.4957 18.6972C42.7457 19.236 42.8751 19.8228 42.875 20.4168V38.7918C42.875 39.8748 42.4448 40.9134 41.679 41.6792C40.9132 42.445 39.8746 42.8752 38.7917 42.8752H10.2083C9.12537 42.8752 8.08675 42.445 7.32098 41.6792C6.55521 40.9134 6.125 39.8748 6.125 38.7918V20.4168Z" stroke="#EF651A" stroke-width="3" stroke-linecap="round" stroke-linejoin="round"/>
</svg>
