<svg width="48" height="48" viewBox="0 0 48 48" fill="none" xmlns="http://www.w3.org/2000/svg">
<path d="M42.84 21.8442C43.1981 21.6863 43.5019 21.4268 43.7139 21.0978C43.9259 20.7689 44.0367 20.385 44.0327 19.9937C44.0286 19.6024 43.9099 19.2209 43.6911 18.8964C43.4724 18.5719 43.1632 18.3187 42.802 18.1682L25.66 10.3602C25.1389 10.1225 24.5728 9.99951 24 9.99951C23.4272 9.99951 22.8611 10.1225 22.34 10.3602L5.20002 18.1602C4.84396 18.3162 4.54106 18.5725 4.32836 18.8979C4.11566 19.2232 4.00238 19.6035 4.00238 19.9922C4.00238 20.3809 4.11566 20.7612 4.32836 21.0866C4.54106 21.412 4.84396 21.6683 5.20002 21.8242L22.34 29.6402C22.8611 29.8779 23.4272 30.0009 24 30.0009C24.5728 30.0009 25.1389 29.8779 25.66 29.6402L42.84 21.8442Z" stroke="#EF651A" stroke-width="3" stroke-linecap="round" stroke-linejoin="round"/>
<path d="M44 20V32" stroke="#EF651A" stroke-width="2" stroke-linecap="round" stroke-linejoin="round"/>
<path d="M12 25V32C12 33.5913 13.2643 35.1174 15.5147 36.2426C17.7652 37.3679 20.8174 38 24 38C27.1826 38 30.2348 37.3679 32.4853 36.2426C34.7357 35.1174 36 33.5913 36 32V25" stroke="#EF651A" stroke-width="3" stroke-linecap="round" stroke-linejoin="round"/>
</svg>
